<?xml version="1.0" standalone="no"?><!DOCTYPE svg PUBLIC "-//W3C//DTD SVG 1.1//EN" "http://www.w3.org/Graphics/SVG/1.1/DTD/svg11.dtd"><svg t="1513788677867" class="icon" style="" viewBox="0 0 1024 1024" version="1.1" xmlns="http://www.w3.org/2000/svg" p-id="1838" xmlns:xlink="http://www.w3.org/1999/xlink" width="64" height="64"><defs><style type="text/css"></style></defs><path d="M929.024 526.464l-80.16-72.032c-9.76-8.8-17.696-26.752-17.632-39.936l1.376-206.112c0.096-13.152-10.624-23.936-23.776-23.936l-80.384 0c-13.152 0-23.904 10.752-23.904 23.936l0.224 99.84c0.032 13.152-7.968 16.736-17.76 7.936l-145.44-137.888c-9.76-8.8-25.984-8.992-35.968-0.416l-410.464 350.976c-9.984 8.576-7.424 15.584 5.76 15.584l63.968 0c13.152 0 32.288-6.784 42.496-15.072l297.856-241.76c10.208-8.288 26.752-8.064 36.704 0.544l277.28 238.752c9.984 8.576 28.896 15.616 42.08 15.616l61.696 0c13.088-0.032 15.872-7.2 6.048-16.032zM539.648 334.88c-9.984-8.576-26.464-8.832-36.64-0.512l-295.072 240.16c-10.208 8.32-17.248 25.856-17.248 39.04l0 213.888c0 13.152 10.752 23.968 23.936 24.064l208.512 0.896c13.152 0.096 23.936-10.656 23.936-23.808l0-168.544c0-13.152 6.944-23.936 15.456-23.936l93.344 0c10.528 0 19.168 10.752 19.168 23.936l0 167.776c0 13.152 10.752 23.936 23.936 23.936l209.28 0c13.152 0 23.936-10.752 23.936-23.936l0-214.304c0-13.152-5.504-30.976-15.456-39.552l-277.088-239.104z" p-id="1839"></path></svg>